PathFileType	4	(X/Y/Z)	Patient4_TMGait_0pt5_01_left_06.trc.trc
DataRate	CameraRate	NumFrames	NumMarkers	Units	OrigDataRate	OrigDataStartFrame	OrigNumFrames
71.428571428571	71.428571428571	4	33	mm	71.428571428571	18	       141
Frame#	Time	L.ASIS			Sacral			L.Shoulder			Chest			R.Shoulder			Neck			R.ASIS			R.Thigh.Superior			R.Thigh.Lateral			R.Thigh.Inferior			R.Patella			L.Thigh.Superior			L.Thigh.Lateral			L.Thigh.Inferior			L.Patella			L.Shank.Superior			L.Shank.Lateral			L.Shank.Inferior			R.Shank.Superior			R.Shank.Lateral			R.Shank.Inferior			R.Heel			R.Midfoot.Superior			R.Midfoot.Lateral			R.Toe			L.Heel			L.Midfoot.Lateral			L.Midfoot.Superior			L.Toe			L.Elbow			L.Wrist			R.Elbow			R.Wrist			
		X1	Y1	Z1	X2	Y2	Z2	X3	Y3	Z3	X4	Y4	Z4	X5	Y5	Z5	X6	Y6	Z6	X7	Y7	Z7	X8	Y8	Z8	X9	Y9	Z9	X10	Y10	Z10	X11	Y11	Z11	X12	Y12	Z12	X13	Y13	Z13	X14	Y14	Z14	X15	Y15	Z15	X16	Y16	Z16	X17	Y17	Z17	X18	Y18	Z18	X19	Y19	Z19	X20	Y20	Z20	X21	Y21	Z21	X22	Y22	Z22	X23	Y23	Z23	X24	Y24	Z24	X25	Y25	Z25	X26	Y26	Z26	X27	Y27	Z27	X28	Y28	Z28	X29	Y29	Z29	X30	Y30	Z30	X31	Y31	Z31	X32	Y32	Z32	X33	Y33	Z33	

18	8.238000000000	692.903537963194	966.206547216490	374.079881082636	487.500753488242	1003.378034938899	544.753735411315	637.847621472222	1445.791659314921	380.548122578224	752.007933623091	1365.437789467538	528.660805896189	679.904139506808	1425.303814365710	713.457765927547	646.064342166453	1496.151905488566	535.326788611652	719.834981030473	940.016668989754	648.676108437043	727.119615744858	730.827784486675	617.073062834027	627.881404886525	631.358321407838	675.355232032491	693.313571633188	569.841745523734	595.863324051926	677.012147598757	481.969452225503	598.222666519435	764.957865342764	775.244640928232	391.550602117483	708.896933228456	649.657483870083	313.692895846703	813.296490070097	587.035283325831	368.376503449031	840.747054771812	525.077071175253	364.542090885551	828.280818449401	455.841917759331	354.165084209949	769.794386521522	323.769062028299	300.576840886839	863.375824016681	229.200912349422	352.388080883483	638.724875643739	396.831511408821	601.193304763048	553.599482908614	301.489114220610	658.997463977933	584.152339301324	204.161446751330	592.167653883726	431.482068940812	47.241693286073	558.774302399394	607.432813061377	97.637681549020	590.250424881606	517.850277373424	36.612214758829	628.388321302195	725.512704605477	38.830734838067	609.739069257243	788.001885047071	45.968435594569	387.368693565995	863.629010475589	52.197431044637	308.882858444037	930.665061743618	132.753600828381	328.537530993959	1065.656615144212	109.017547812969	306.721837194975	513.427040026582	1119.294504161823	261.903266996878	481.743364125558	862.242056864609	249.019975684066	790.342909522756	1099.439638067818	813.463153100156	1039.981469189728	1131.036680331528	778.502849772822	
19	8.252000000000	693.182821156145	964.934652400509	372.539387678694	486.865656178771	1002.137589276267	542.095797854783	636.800198525639	1444.540138048190	378.061961773015	750.585410524007	1364.562035754572	526.626812530864	677.774972788853	1424.472422203583	711.127352554262	644.310847379710	1494.967497219688	532.632159559833	718.531881751133	939.016696326326	647.393577447309	724.455367276509	729.379737896447	616.133853593820	624.160542096351	630.675306704018	674.189845237816	689.153179133392	568.577339644741	594.860852408300	672.123314660242	480.804982675512	597.042510371355	765.863702358653	774.487938617044	391.620754987522	711.171809745817	648.383796638567	313.356491297220	814.967546523430	586.176721356825	369.150047836715	842.168448381569	523.330346183383	365.509309235803	828.841292080113	453.519597004456	355.359412675357	768.457632663053	322.384064272920	301.851360974110	859.819479445282	226.456044859328	354.688354880373	633.402417357703	395.884329145514	600.215901532163	547.852531782262	301.071878313983	658.335405710566	577.634655338427	203.500308096716	591.519789663206	424.343509814002	46.810777899891	558.606090789299	600.100131820732	97.451539260293	589.963597717163	510.671310175493	36.519067367358	628.336993152575	718.353260386112	38.911842159865	609.763950397009	781.075137969758	44.995464273452	389.446464782431	857.156216108346	49.975191357162	311.352896084403	925.595273393014	128.961263935078	331.641114821492	1060.109594791333	102.565291880194	310.451202919353	510.133450571644	1118.827044911620	260.761955989613	477.393721799803	861.783205248447	248.874961513994	789.692842922794	1099.240672864251	810.989528197902	1038.458151635882	1133.978696673561	774.385720796627	
20	8.266000000000	693.703812602108	963.420630716531	370.930738832000	486.365639469039	1000.706366863963	539.208225011706	635.878635724103	1443.051807148583	375.322162883887	749.229002056117	1363.549261941864	524.439255875745	675.560946533682	1423.534157286706	708.581021573610	642.584038219753	1493.610671534612	529.671312855061	717.387464738204	937.853131254289	646.023849117574	722.105128244232	727.775067027958	615.071991080856	620.795440582736	629.811168146105	672.875164693919	685.337928292444	567.153960684313	593.655411120645	667.557372332617	479.436912895301	595.616775557555	766.915421122186	773.366296751789	391.802273840529	713.540464500027	646.901737610196	313.060615450172	816.588604159707	585.018881817387	370.147553194955	843.340688637555	521.069118700196	366.696607878793	828.948043029561	450.633360093607	356.688531549261	766.205751568217	320.667198524929	303.205377943500	854.923553376245	223.063497916945	357.151887628269	628.367601213831	394.759945129864	599.038454436128	542.403336933325	300.526024244386	657.562132842220	571.235058342288	202.711863564362	590.731608241169	417.210218269038	46.331112664340	558.417893618316	592.729575320516	97.229048978965	589.622471150945	503.488685271313	36.416021106739	628.278226241519	711.187414855919	38.990193292710	609.796055058766	772.106611317658	43.737222036597	391.484999776073	848.689229102362	47.366182141783	313.820615111490	918.792328656938	124.412841957996	335.012549470809	1052.732543757571	94.873220906707	314.441687844020	507.738542235417	1117.785879507586	259.268269382375	474.460352423522	860.683712023886	248.307139050254	788.687359055967	1098.853414114243	808.633079696723	1036.725375252986	1135.846196807621	770.563369962228	
21	8.280000000000	694.431793738442	961.703149129581	369.268629634658	485.971594754068	999.122942607660	536.116571627576	635.116693436502	1441.346272847713	372.323418892183	747.963018595547	1362.418501168982	522.102107031063	673.288897124361	1422.533199260173	705.812998397143	640.914296691365	1492.119907249379	526.449065687483	716.400209317561	936.541815285132	644.563889244923	720.099922243705	726.036766933794	613.834879899239	617.856628735353	628.765149546388	671.386488202150	681.933287006878	565.583221758548	592.202874021025	663.396269301616	477.857336034064	593.916134890690	768.079952438237	771.908504688948	392.039837931971	715.850284583355	645.251500979026	312.812491912757	818.075867294760	583.610066438381	371.304373233350	844.173434065012	518.413996510905	368.077810278110	828.598636096993	447.341990030100	358.094657551730	763.236993559756	318.706071191056	304.558161231465	849.037172259678	219.258405405026	359.666005883585	623.671071359314	393.454218968403	597.632177424541	537.296366177068	299.867782958862	656.659781620563	564.980094542942	201.810248966025	589.796753628945	410.089175440157	45.839435617102	558.214309714223	585.341012213435	96.984565118763	589.233583113854	496.310795885257	36.315563963533	628.209927801426	704.022659135941	39.054321081744	609.835708087349	761.708471786356	42.335504354148	393.368991101062	838.834698736140	44.602895316043	316.164454958884	910.733138674050	119.444054603230	338.516335749987	1044.044923208883	86.479534466140	318.563762385030	506.324981650929	1116.154083810220	257.385097430158	472.986519044280	858.934931586015	247.288005173787	787.281608706704	1098.274278162278	806.379116366298	1034.770686531523	1136.606951627956	767.030446943327	
